<?xml version="1.0" encoding="UTF-8"?>
<svg xmlns="http://www.w3.org/2000/svg" xmlns:xlink="http://www.w3.org/1999/xlink" width="1190.25pt" height="1683.749945pt" viewBox="0 0 1190.25 1683.749945" version="1.2">
<g id="surface1">
<path style=" stroke:none;fill-rule:nonzero;fill:rgb(50.588989%,69.799805%,60.389709%);fill-opacity:1;" d="M 184.328125 226.839844 C 183.777344 252.679688 197.492188 276.671875 218.40625 291.871094 C 258.390625 320.972656 306.925781 318.820312 353.550781 318.265625 C 584.40625 315.496094 792.011719 329.09375 1013.886719 317.773438 C 1007.921875 559.015625 1016.226562 895.066406 1005.828125 1165.101562 C 1004.292969 1204.417969 972.058594 1235.671875 932.753906 1237.640625 C 701.21875 1249.453125 469.992188 1247.113281 238.890625 1228.71875 C 205.859375 1226.074219 180.207031 1198.816406 179.777344 1165.65625 C 175.902344 879.378906 179.101562 541.234375 184.574219 233.730469 Z M 184.328125 226.839844 "/>
<path style="fill:none;stroke-width:1;stroke-linecap:round;stroke-linejoin:round;stroke:rgb(21.179199%,37.249756%,62.748718%);stroke-opacity:1;stroke-miterlimit:10;" d="M 160.320257 264.639896 C 159.370248 235.87006 160.099901 179.619868 160.099901 149.980219 " transform="matrix(6.151257,0,0,6.152548,-712.5851,-444.897276)"/>
<path style="fill:none;stroke-width:1;stroke-linecap:round;stroke-linejoin:round;stroke:rgb(21.179199%,37.249756%,62.748718%);stroke-opacity:1;stroke-miterlimit:10;" d="M 146.729919 113.969988 C 145.210285 109.890124 146.190141 107.749878 149.449765 104.859815 C 152.710023 101.969752 161.529995 101.630081 165.87997 101.480245 C 182.32986 100.910105 196.280262 101.680238 211.199724 102.139905 C 234.629896 102.849723 253.149994 102.619889 273.789831 103.169712 C 274.280077 111.23992 273.159879 115.310261 273.650124 123.37031 " transform="matrix(6.151257,0,0,6.152548,-712.5851,-444.897276)"/>
<path style="fill:none;stroke-width:1;stroke-linecap:round;stroke-linejoin:round;stroke:rgb(21.179199%,37.249756%,62.748718%);stroke-opacity:1;stroke-miterlimit:10;" d="M 172.620208 106.269927 C 196.379962 105.040126 221.560285 106.149931 245.360046 106.269927 " transform="matrix(6.151257,0,0,6.152548,-712.5851,-444.897276)"/>
<path style="fill:none;stroke-width:1;stroke-linecap:round;stroke-linejoin:round;stroke:rgb(21.179199%,37.249756%,62.748718%);stroke-opacity:1;stroke-miterlimit:10;" d="M 199.170297 122.080194 C 222.890044 121.899883 246.619951 121.849726 270.339698 121.95004 " transform="matrix(6.151257,0,0,6.152548,-712.5851,-444.897276)"/>
<path style="fill:none;stroke-width:1;stroke-linecap:round;stroke-linejoin:round;stroke:rgb(21.179199%,37.249756%,62.748718%);stroke-opacity:1;stroke-miterlimit:10;" d="M 273.300221 115.449939 C 241.96008 116.089918 196.390123 115.750246 165.060142 114.649965 " transform="matrix(6.151257,0,0,6.152548,-712.5851,-444.897276)"/>
<path style="fill:none;stroke-width:1;stroke-linecap:round;stroke-linejoin:round;stroke:rgb(21.179199%,37.249756%,62.748718%);stroke-opacity:1;stroke-miterlimit:10;" d="M 167.430085 141.969692 C 171.919767 141.710018 175.439754 136.660027 174.139842 132.359852 C 204.260085 134.030273 234.469868 134.230266 264.609797 132.959833 C 264.019851 137.110171 267.729713 141.329713 271.92982 141.280191 C 270.610222 178.520222 268.820064 218.000178 267.67002 255.670036 C 263.13017 253.329796 255.330062 261.379687 256.469946 266.03985 C 229.609961 266.430313 202.749977 265.279875 175.889992 265.669703 C 176.650127 263.2901 175.700118 259.869896 173.539736 258.619779 C 171.379989 257.370297 169.429803 257.050308 166.939839 256.939835 C 165.58976 222.210197 167.430085 141.969692 167.430085 141.969692 Z M 167.430085 141.969692 " transform="matrix(6.151257,0,0,6.152548,-712.5851,-444.897276)"/>
<path style="fill:none;stroke-width:1;stroke-linecap:round;stroke-linejoin:round;stroke:rgb(21.179199%,37.249756%,62.748718%);stroke-opacity:1;stroke-miterlimit:10;" d="M 188.290279 151.370014 C 209.96014 152.009992 231.640161 152.329982 253.329708 152.350299 C 253.600232 154.279758 253.609758 156.26001 253.369715 158.190104 C 231.670008 158.619931 210.579932 157.979953 188.880224 158.40978 C 188.910071 157.270135 188.630021 155.449878 188.649707 154.759742 Z M 188.290279 151.370014 " transform="matrix(6.151257,0,0,6.152548,-712.5851,-444.897276)"/>
<path style="fill:none;stroke-width:1;stroke-linecap:round;stroke-linejoin:round;stroke:rgb(21.179199%,37.249756%,62.748718%);stroke-opacity:1;stroke-miterlimit:10;" d="M 197.860224 163.899756 C 213.170231 164.349899 228.489763 164.579733 243.809931 164.589891 C 243.999805 165.960005 244.009966 167.3498 243.839777 168.719913 C 228.510084 169.02022 213.600148 168.570076 198.26982 168.879907 C 198.290141 168.069776 198.090106 166.789818 198.109792 166.300311 Z M 197.860224 163.899756 " transform="matrix(6.151257,0,0,6.152548,-712.5851,-444.897276)"/>
<path style="fill:none;stroke-width:1;stroke-linecap:round;stroke-linejoin:round;stroke:rgb(21.179199%,37.249756%,62.748718%);stroke-opacity:1;stroke-miterlimit:10;" d="M 197.860224 237.659841 C 213.170231 238.109985 228.489763 238.339819 243.809931 238.349977 C 243.999805 239.72009 244.009966 241.109885 243.839777 242.479999 C 228.510084 242.780306 213.600148 242.330162 198.26982 242.639993 C 198.290141 241.829861 198.090106 240.549904 198.109792 240.059762 Z M 197.860224 237.659841 " transform="matrix(6.151257,0,0,6.152548,-712.5851,-444.897276)"/>
<path style=" stroke:none;fill-rule:nonzero;fill:rgb(100%,100%,100%);fill-opacity:1;" d="M 866.566406 901.773438 C 960.125 875.195312 1015.734375 880.484375 1063.527344 879.007812 C 1075.894531 878.640625 1088.316406 883.253906 1098.777344 889.898438 C 1114.398438 899.804688 1127.5 916.230469 1130.148438 934.566406 C 1141.894531 1017.316406 1128.609375 1076.8125 1104.066406 1149.167969 C 1087.949219 1196.664062 1049.566406 1233.765625 1029.144531 1279.601562 C 996.789062 1352.261719 1024.46875 1435.015625 1002.632812 1511.488281 C 1001.707031 1514.8125 1000.664062 1518.195312 998.265625 1520.65625 C 995.617188 1523.488281 991.683594 1524.71875 987.867188 1525.765625 C 934.90625 1540.285156 856.292969 1538.316406 803.882812 1521.949219 C 811.328125 1446.765625 822.398438 1322.484375 825.476562 1245.023438 C 884.894531 1245.023438 941.304688 1246.683594 978.273438 1220.105469 C 1015.242188 1193.527344 1013.828125 1175.5 1016.839844 1132.554688 C 1017.457031 1123.878906 950.347656 1092.007812 922.972656 1101.605469 C 898.058594 1110.34375 871.671875 1128.371094 849.894531 1131.691406 C 825.96875 1135.324219 807.820312 1123.695312 825.476562 1099.269531 C 817.292969 1106.34375 808.191406 1096.070312 804.4375 1085.917969 C 800.6875 1075.765625 805.238281 1064.078125 812.742188 1056.261719 C 801.730469 1060.878906 787.523438 1055.402344 782.476562 1044.574219 C 777.433594 1033.746094 782.417969 1019.285156 793.121094 1013.871094 C 785.0625 1013.6875 775.34375 1012.578125 771.773438 1005.257812 C 768.269531 998.058594 773.25 989.753906 778.355469 983.664062 C 792.996094 966.25 844.730469 907.925781 866.566406 901.773438 Z M 866.566406 901.773438 "/>
<path style="fill:none;stroke-width:1;stroke-linecap:round;stroke-linejoin:round;stroke:rgb(21.179199%,37.249756%,62.748718%);stroke-opacity:1;stroke-miterlimit:10;" d="M 281.160023 256.379854 C 281.010155 254.969742 270.349859 249.790232 265.900183 251.35018 C 261.849944 252.769815 257.560297 255.699876 254.019989 256.240176 C 250.129778 256.829997 247.18005 254.939902 250.049763 250.969875 C 248.720005 252.120313 247.239743 250.449892 246.630112 248.799788 C 246.019845 247.150319 246.760293 245.250065 247.980191 243.980266 C 246.190034 244.730082 243.879784 243.839953 243.059957 242.080012 C 242.240129 240.32007 243.049796 237.970307 244.789786 237.089702 C 243.479714 237.059861 241.899752 236.880185 241.319967 235.689748 C 240.749707 234.520263 241.560009 233.169832 242.389997 232.180024 C 244.75994 229.3598 253.170315 219.880116 256.720148 218.880149 C 271.92982 214.560292 280.970148 215.419946 288.739775 215.179954 C 290.750289 215.120274 292.769693 215.87009 294.470311 216.950054 C 297.009808 218.560159 299.139708 221.229912 299.57026 224.21013 C 301.479804 237.659841 299.320057 247.329996 295.330146 259.09024 C 292.71 266.809983 286.470167 272.840258 283.150216 280.290169 C 277.890239 292.099935 282.390081 305.550281 278.840248 317.980344 C 278.689745 318.520009 278.520191 319.069832 278.130281 319.469818 C 277.699729 319.93012 277.060251 320.130114 276.439824 320.300267 C 267.830048 322.660188 255.050012 322.340199 246.529776 319.67997 C 247.740149 307.460059 249.539832 287.260096 250.040238 274.670039 " transform="matrix(6.151257,0,0,6.152548,-712.5851,-444.897276)"/>
<path style="fill:none;stroke-width:1;stroke-linecap:round;stroke-linejoin:round;stroke:rgb(21.179199%,37.249756%,62.748718%);stroke-opacity:1;stroke-miterlimit:10;" d="M 244.780261 237.089702 C 248.020198 234.369792 252.709916 229.759787 256.960191 227.580177 C 261.439713 225.279936 265.959876 225.029785 270.339698 224.21013 " transform="matrix(6.151257,0,0,6.152548,-712.5851,-444.897276)"/>
<path style="fill:none;stroke-width:1;stroke-linecap:round;stroke-linejoin:round;stroke:rgb(21.179199%,37.249756%,62.748718%);stroke-opacity:1;stroke-miterlimit:10;" d="M 247.980191 243.980266 C 252.180299 241.139726 256.910023 237.810313 261.030116 236.089735 C 265.15021 234.369792 269.239821 234.400267 273.500256 234.400267 " transform="matrix(6.151257,0,0,6.152548,-712.5851,-444.897276)"/>
<path style="fill:none;stroke-width:1;stroke-linecap:round;stroke-linejoin:round;stroke:rgb(21.179199%,37.249756%,62.748718%);stroke-opacity:1;stroke-miterlimit:10;" d="M 250.049763 250.959717 C 253.499897 249.079779 258.279789 245.429742 263.010149 244.109786 C 266.420275 243.159976 270.699762 244.159943 273.519943 243.879952 " transform="matrix(6.151257,0,0,6.152548,-712.5851,-444.897276)"/>
<path style=" stroke:none;fill-rule:nonzero;fill:rgb(87.838745%,47.839355%,37.249756%);fill-opacity:1;" d="M 806.960938 1459.746094 C 802.777344 1483.003906 802.40625 1506.507812 798.226562 1529.761719 C 797.609375 1533.085938 797.054688 1536.59375 797.855469 1539.851562 C 799.703125 1547.113281 803.332031 1549.019531 809.605469 1549.945312 C 870.996094 1558.863281 933.796875 1565.324219 995.1875 1556.773438 C 1003.125 1555.664062 1010.8125 1555.417969 1016.226562 1548.34375 C 1019.976562 1543.421875 1022.808594 1531.609375 1023.238281 1524.964844 C 1024.960938 1499.554688 1024.960938 1475.066406 1021.148438 1450.519531 C 959.695312 1457.964844 897.875 1461.285156 836.117188 1461.285156 Z M 806.960938 1459.746094 "/>
<path style=" stroke:none;fill-rule:nonzero;fill:rgb(94.898987%,79.998779%,56.079102%);fill-opacity:1;" d="M 806.222656 1380.441406 C 878.4375 1392.191406 952.4375 1393.976562 1025.144531 1385.792969 C 1033.019531 1384.933594 1039.847656 1390.839844 1040.152344 1398.773438 C 1040.585938 1410.648438 1040.277344 1422.523438 1039.414062 1434.335938 C 1038.921875 1440.429688 1038.125 1446.886719 1034.0625 1451.5625 C 1029.574219 1456.730469 1022.191406 1458.394531 1015.304688 1459.625 C 945.179688 1472.484375 872.902344 1474.265625 802.222656 1464.914062 C 799.515625 1464.546875 796.6875 1464.113281 794.535156 1462.453125 C 790.71875 1459.4375 790.90625 1453.839844 791.519531 1449.101562 C 794.289062 1425.96875 794.902344 1388.378906 802.039062 1380.441406 Z M 806.222656 1380.441406 "/>
<path style=" stroke:none;fill-rule:nonzero;fill:rgb(100%,100%,100%);fill-opacity:1;" d="M 323.777344 901.773438 C 230.21875 875.195312 174.609375 880.484375 126.816406 879.007812 C 114.453125 878.640625 102.027344 883.253906 91.570312 889.898438 C 75.945312 899.804688 62.84375 916.230469 60.195312 934.566406 C 48.449219 1017.316406 61.734375 1076.8125 86.277344 1149.167969 C 102.394531 1196.664062 140.777344 1233.765625 161.199219 1279.601562 C 193.554688 1352.261719 165.875 1435.015625 187.710938 1511.488281 C 188.636719 1514.8125 189.679688 1518.195312 192.082031 1520.65625 C 194.726562 1523.488281 198.660156 1524.71875 202.476562 1525.765625 C 255.4375 1540.285156 334.050781 1538.316406 386.460938 1521.949219 C 379.015625 1446.765625 367.945312 1316.148438 364.867188 1238.746094 C 306.371094 1233.765625 271.246094 1239.117188 220.621094 1222.75 C 177.316406 1208.785156 182.667969 1174.085938 173.503906 1132.617188 C 171.597656 1124.125 240 1092.070312 267.371094 1101.667969 C 292.285156 1110.40625 318.671875 1128.433594 340.449219 1131.753906 C 364.375 1135.386719 382.523438 1123.757812 364.867188 1099.332031 C 373.050781 1106.40625 382.152344 1096.132812 385.90625 1085.980469 C 389.660156 1075.828125 385.105469 1064.136719 377.601562 1056.324219 C 388.613281 1060.9375 402.820312 1055.464844 407.867188 1044.632812 C 412.910156 1033.804688 407.929688 1019.347656 397.226562 1013.933594 C 405.28125 1013.75 415 1012.640625 418.570312 1005.320312 C 422.074219 998.121094 417.09375 989.816406 411.988281 983.722656 C 397.347656 966.25 345.617188 907.925781 323.777344 901.773438 Z M 323.777344 901.773438 "/>
<path style="fill:none;stroke-width:1;stroke-linecap:round;stroke-linejoin:round;stroke:rgb(21.179199%,37.249756%,62.748718%);stroke-opacity:1;stroke-miterlimit:10;" d="M 144.03992 256.379854 C 144.189788 254.969742 154.850084 249.790232 159.299759 251.35018 C 163.349999 252.769815 167.640281 255.699876 171.179954 256.240176 C 175.070165 256.829997 178.019893 254.939902 175.150179 250.969875 C 176.479938 252.120313 177.960199 250.449892 178.569831 248.799788 C 179.180098 247.150319 178.440284 245.250065 177.219751 243.980266 C 179.009909 244.730082 181.320158 243.839953 182.139986 242.080012 C 182.959813 240.32007 182.150146 237.970307 180.410156 237.089702 C 181.720229 237.059861 183.300191 236.880185 183.879976 235.689748 C 184.450235 234.520263 183.639933 233.169832 182.809945 232.180024 C 180.440003 229.3598 172.030263 219.880116 168.479794 218.880149 C 153.270122 214.560292 144.229795 215.419946 136.460168 215.179954 C 134.450289 215.120274 132.430249 215.87009 130.730266 216.950054 C 128.190135 218.560159 126.060235 221.229912 125.629682 224.21013 C 123.720139 237.659841 125.879885 247.329996 129.869797 259.09024 C 132.489942 266.809983 138.729775 272.840258 142.049727 280.290169 C 147.309704 292.099935 142.809861 305.550281 146.359695 317.980344 C 146.510198 318.520009 146.679751 319.069832 147.070297 319.469818 C 147.500214 319.93012 148.139692 320.130114 148.760119 320.300267 C 157.369894 322.660188 170.14993 322.340199 178.670166 319.67997 C 177.459794 307.460059 175.66011 286.230289 175.159705 273.649755 " transform="matrix(6.151257,0,0,6.152548,-712.5851,-444.897276)"/>
<path style="fill:none;stroke-width:1;stroke-linecap:round;stroke-linejoin:round;stroke:rgb(21.179199%,37.249756%,62.748718%);stroke-opacity:1;stroke-miterlimit:10;" d="M 180.420317 237.089702 C 177.179744 234.369792 172.490026 229.759787 168.239752 227.580177 C 163.76023 225.279936 159.240066 225.029785 154.860245 224.21013 " transform="matrix(6.151257,0,0,6.152548,-712.5851,-444.897276)"/>
<path style="fill:none;stroke-width:1;stroke-linecap:round;stroke-linejoin:round;stroke:rgb(21.179199%,37.249756%,62.748718%);stroke-opacity:1;stroke-miterlimit:10;" d="M 177.219751 243.980266 C 173.020279 241.139726 168.289919 237.810313 164.169826 236.089735 C 160.049733 234.369792 155.960121 234.400267 151.699686 234.400267 " transform="matrix(6.151257,0,0,6.152548,-712.5851,-444.897276)"/>
<path style="fill:none;stroke-width:1;stroke-linecap:round;stroke-linejoin:round;stroke:rgb(21.179199%,37.249756%,62.748718%);stroke-opacity:1;stroke-miterlimit:10;" d="M 175.150179 250.959717 C 171.700046 249.079779 166.920153 245.429742 162.189794 244.109786 C 158.779667 243.159976 154.500181 244.159943 151.68 243.879952 " transform="matrix(6.151257,0,0,6.152548,-712.5851,-444.897276)"/>
<path style=" stroke:none;fill-rule:nonzero;fill:rgb(87.838745%,47.839355%,37.249756%);fill-opacity:1;" d="M 383.382812 1459.746094 C 387.566406 1483.003906 387.9375 1506.507812 392.117188 1529.761719 C 392.734375 1533.085938 393.289062 1536.59375 392.488281 1539.851562 C 390.644531 1547.113281 387.011719 1549.019531 380.738281 1549.945312 C 319.351562 1558.863281 256.546875 1565.324219 195.15625 1556.773438 C 187.222656 1555.664062 179.53125 1555.417969 174.117188 1548.34375 C 170.367188 1543.421875 167.535156 1531.609375 167.105469 1524.964844 C 165.382812 1499.554688 165.382812 1475.066406 169.199219 1450.519531 C 230.648438 1457.964844 292.46875 1461.285156 354.226562 1461.285156 Z M 383.382812 1459.746094 "/>
<path style=" stroke:none;fill-rule:nonzero;fill:rgb(94.898987%,79.998779%,56.079102%);fill-opacity:1;" d="M 384.121094 1380.441406 C 311.90625 1392.191406 237.90625 1393.976562 165.199219 1385.792969 C 157.324219 1384.933594 150.496094 1390.839844 150.191406 1398.773438 C 149.757812 1410.648438 150.066406 1422.523438 150.929688 1434.335938 C 151.421875 1440.429688 152.21875 1446.886719 156.28125 1451.5625 C 160.769531 1456.730469 168.152344 1458.394531 175.042969 1459.625 C 245.164062 1472.484375 317.441406 1474.265625 388.121094 1464.914062 C 390.828125 1464.546875 393.65625 1464.113281 395.808594 1462.453125 C 399.625 1459.4375 399.4375 1453.839844 398.824219 1449.101562 C 396.054688 1425.96875 395.441406 1388.378906 388.304688 1380.441406 Z M 384.121094 1380.441406 "/>
</g>
</svg>
