<?xml version="1.0" encoding="UTF-8"?>
<svg xmlns="http://www.w3.org/2000/svg" xmlns:xlink="http://www.w3.org/1999/xlink" width="375pt" height="374.999991pt" viewBox="0 0 375 374.999991" version="1.2">
<defs>
<clipPath id="clip1">
  <path d="M 5.542969 0 L 369.292969 0 L 369.292969 375 L 5.542969 375 Z M 5.542969 0 "/>
</clipPath>
<clipPath id="clip2">
  <path d="M 116 84.121094 L 285.917969 84.121094 L 285.917969 245 L 116 245 Z M 116 84.121094 "/>
</clipPath>
<clipPath id="clip3">
  <path d="M 89.417969 100 L 260 100 L 260 291.121094 L 89.417969 291.121094 Z M 89.417969 100 "/>
</clipPath>
</defs>
<g id="surface1">
<g clip-path="url(#clip1)" clip-rule="nonzero">
<path style=" stroke:none;fill-rule:nonzero;fill:rgb(95.689392%,94.509888%,87.059021%);fill-opacity:1;" d="M 5.859375 218.566406 L 5.667969 210.933594 C 7.269531 215.410156 5.945312 215.355469 5.859375 218.566406 Z M 9.738281 221.335938 L 10.375 216.46875 L 8.925781 216.222656 Z M 231.839844 365.761719 L 232.046875 365.488281 C 231.292969 365.636719 230.597656 365.773438 229.882812 365.921875 Z M 5.894531 219.984375 L 5.859375 218.566406 C 5.847656 218.980469 5.855469 219.445312 5.894531 219.984375 Z M 359.484375 141.28125 L 360.800781 141.894531 C 360.054688 139.519531 359.710938 140.152344 359.484375 141.28125 Z M 352.242188 107.683594 C 351.808594 109.203125 351.683594 110.742188 351.714844 112.25 C 352.714844 112.367188 353.097656 110.648438 352.242188 107.683594 Z M 139.25 3.769531 C 138.898438 3.738281 138.464844 3.71875 137.90625 3.71875 C 137.90625 3.71875 138.445312 3.742188 139.25 3.769531 Z M 367.6875 190.019531 C 368.234375 192.089844 368.578125 194.167969 368.578125 194.167969 C 362.972656 194.761719 367.46875 205.84375 362.226562 206.761719 C 361.324219 215.960938 365.566406 205.84375 364.710938 209.070312 C 364.726562 213.464844 362.765625 219.316406 361.203125 224.363281 C 360.800781 225.625 360.421875 226.847656 360.066406 227.984375 C 359.625 229.105469 359.25 230.148438 358.960938 231.097656 C 358.390625 232.992188 358.1875 234.480469 358.644531 235.355469 C 356.738281 238.742188 355.746094 242.492188 354.542969 246.042969 C 353.199219 249.539062 351.996094 252.933594 350.398438 255.679688 L 352.476562 256.957031 C 351.605469 258.382812 350.644531 259.957031 349.695312 261.496094 C 348.742188 263.035156 347.730469 264.519531 347.242188 266.066406 C 347.578125 266.199219 348.066406 265.953125 348.621094 265.472656 C 346.957031 268.117188 345.4375 270.640625 344.019531 273.09375 C 342.582031 275.535156 341.378906 277.976562 339.8125 280.148438 C 336.933594 284.632812 334.179688 288.921875 331.34375 293.339844 C 333.039062 293.761719 333.886719 294.316406 337.515625 289.414062 C 336.097656 294.355469 331.414062 299.144531 326.414062 304.269531 C 325.15625 305.539062 323.871094 306.839844 322.578125 308.152344 C 321.191406 309.382812 319.785156 310.632812 318.386719 311.882812 C 315.628906 314.425781 312.984375 317.082031 310.65625 319.953125 L 312.234375 319.980469 C 312.382812 320.160156 304.902344 324.234375 304.902344 324.234375 C 306.671875 323.699219 306.410156 325.011719 307.132812 325.703125 C 304.570312 328.203125 301.816406 330.816406 299 333.339844 C 296.035156 335.6875 292.882812 337.8125 289.882812 339.734375 C 284.425781 343.445312 278.773438 345.414062 274.574219 345.582031 C 275.660156 346.238281 270.585938 351.035156 277.613281 348.746094 C 263.878906 354.019531 247.378906 361.671875 232.042969 365.488281 L 232.226562 365.25 L 225.597656 365.757812 L 225.207031 366.277344 L 229.882812 365.921875 C 226.769531 366.515625 223.738281 367.007812 220.851562 367.328125 C 219.40625 367.472656 218.015625 367.644531 216.640625 367.625 C 215.261719 367.5625 213.929688 367.449219 212.65625 367.28125 C 211.808594 368.230469 210.65625 370.628906 207.035156 372.011719 C 206.894531 371.277344 205.71875 371.246094 203.894531 371.585938 C 202.070312 371.886719 199.617188 372.746094 196.851562 373.097656 C 191.355469 374.019531 184.765625 374.925781 180.882812 373.4375 C 179.855469 374.292969 184.21875 373.867188 181.535156 375.007812 C 176.59375 374.800781 171.070312 374.101562 165.25 373.449219 C 162.328125 373.230469 159.375 372.488281 156.359375 371.839844 C 153.355469 371.195312 150.296875 370.539062 147.210938 369.875 C 144.105469 369.359375 141.09375 368.277344 138.039062 367.417969 C 134.992188 366.523438 131.941406 365.671875 128.902344 364.871094 C 122.882812 363.113281 117.128906 360.914062 111.40625 359.519531 C 111.847656 353.617188 93.859375 346.972656 85.214844 337.835938 C 80.746094 339.101562 90.132812 342.890625 91.675781 346.824219 C 86.140625 342.554688 88.222656 349.703125 79.027344 340.792969 C 79.089844 341.289062 78.878906 341.515625 79.21875 341.921875 C 76.851562 339.609375 83.105469 339.890625 75.03125 335.121094 L 73.285156 336.8125 L 69.929688 330.359375 C 61.066406 324.085938 53.589844 317.113281 47.183594 309.699219 C 45.542969 307.871094 43.84375 306.125 42.269531 304.296875 C 40.769531 302.402344 39.273438 300.519531 37.785156 298.640625 C 34.789062 294.894531 31.464844 291.40625 28.601562 287.519531 C 28.453125 286.246094 29.707031 286.058594 31.511719 287.765625 C 29.230469 284.117188 27.636719 279.613281 25.765625 275.199219 C 24.230469 270.585938 22.507812 266.015625 19.289062 262.132812 L 19.535156 264.929688 C 18.449219 263.261719 17.5625 261.765625 16.835938 260.390625 C 16.1875 258.980469 15.777344 257.660156 15.417969 256.445312 C 14.722656 254 14.429688 251.882812 14.203125 249.664062 C 14 247.441406 13.765625 245.160156 13.433594 242.296875 C 13.257812 239.378906 12.863281 235.929688 11.945312 231.476562 C 13.175781 235.378906 13.804688 245.082031 17.046875 244.957031 C 17.914062 243.011719 15.601562 234.226562 13.414062 231.570312 L 14.59375 231.785156 C 12.996094 225.273438 11.761719 218.621094 10.929688 211.835938 C 10.761719 211.121094 10.582031 210.367188 10.398438 209.582031 C 9.824219 207.15625 9.6875 204.402344 9.449219 201.789062 C 9.21875 198.527344 9.203125 195.441406 9.675781 193.335938 C 9.660156 192.480469 9.644531 191.628906 9.644531 190.761719 C 9.644531 183.003906 10.167969 175.371094 11.171875 167.886719 L 9.503906 171.988281 C 12.746094 156.769531 6.496094 173.277344 6.371094 161.753906 C 8.097656 155.304688 8.132812 150.050781 7.484375 145.234375 C 6.898438 140.460938 5.695312 136.171875 6.949219 132.824219 C 12.277344 119.726562 7.96875 138.820312 12.421875 131.148438 C 15.335938 124.199219 11.988281 127.015625 13.078125 122.257812 C 13.078125 122.257812 14.195312 121.808594 15.3125 121.355469 C 16.414062 120.910156 17.632812 120.527344 17.636719 120.527344 C 21.816406 113.074219 14.699219 118.800781 18.054688 114.976562 C 19.03125 107.800781 15.859375 116.335938 12.5625 116.800781 C 14.015625 115.59375 18.527344 109.320312 18.691406 105.746094 C 17.769531 105.355469 13.570312 113.714844 15.800781 108.105469 C 18.472656 103.257812 20.972656 99.554688 22.921875 96.15625 C 24.882812 92.773438 26.300781 89.683594 27.828125 86.742188 C 29.5 83.898438 31.113281 81.0625 33.085938 77.964844 C 34.074219 76.414062 35.152344 74.796875 36.367188 73.078125 C 37.582031 71.355469 39.203125 69.75 40.886719 67.914062 L 38.371094 68.050781 C 40.199219 66.601562 41.929688 65.859375 42.945312 63.835938 L 41.261719 63.929688 C 43.066406 61.609375 58.855469 48.738281 69.433594 40.796875 L 62.664062 43.179688 L 73.703125 38.074219 L 70.804688 36.253906 C 72.09375 36.28125 73.679688 35.683594 75.484375 34.679688 C 77.390625 33.8125 79.539062 32.585938 81.839844 31.179688 C 86.445312 28.378906 91.621094 24.726562 96.992188 22.898438 L 96.03125 21.152344 L 102.6875 19.238281 L 100.019531 18.984375 C 106.175781 15.886719 114.960938 16.476562 121.640625 12.277344 C 117.164062 14.570312 114.9375 12 114.886719 10.523438 C 114.886719 10.523438 116.175781 10.285156 118.117188 9.921875 C 120.066406 9.605469 122.59375 9.011719 125.199219 8.726562 C 130.390625 8.277344 135.589844 7.828125 135.589844 7.828125 C 135.695312 6.476562 142.976562 4.136719 139.277344 3.769531 C 140.054688 3.796875 141.082031 3.835938 142.109375 3.875 C 144.207031 4.128906 146.300781 4.382812 146.300781 4.382812 L 145.398438 2.910156 C 153.257812 1.023438 161.039062 -0.390625 168.738281 0.09375 C 172.574219 0.171875 176.367188 0.371094 180.117188 0.613281 C 183.867188 1.078125 187.574219 1.789062 191.253906 2.367188 C 194.929688 3.0625 198.613281 3.34375 202.238281 4.257812 C 205.871094 5.089844 209.511719 5.839844 213.207031 6.449219 C 215.0625 6.71875 216.921875 6.992188 218.792969 7.265625 C 220.644531 7.660156 222.511719 8.007812 224.414062 8.3125 C 228.214844 8.921875 232.128906 9.335938 236.246094 9.511719 L 235.859375 8.796875 C 235.859375 8.796875 236.957031 9.242188 238.492188 10.214844 C 240.027344 11.140625 242.085938 12.382812 244.136719 13.613281 C 248.160156 16.074219 252.183594 18.539062 252.183594 18.539062 C 255.460938 19.402344 257.382812 17.382812 262.921875 18.859375 C 259.148438 20.5 272.675781 23.625 274.210938 28.039062 C 278.570312 29.25 275.128906 26.261719 274.660156 24.601562 C 278.898438 26.3125 282.734375 28.367188 286.328125 30.597656 C 289.914062 32.847656 292.941406 35.75 296.144531 38.4375 C 302.683594 43.703125 308.226562 50.234375 316.25 56.164062 C 307.628906 50.871094 303.484375 48.292969 300.136719 45.878906 C 296.566406 43.769531 293.78125 41.886719 287.996094 38.613281 C 299.464844 49.15625 303.355469 48.664062 314.773438 61.015625 C 314.773438 61.015625 314.503906 60.597656 314.101562 59.964844 C 313.683594 59.347656 313.1875 58.457031 312.554688 57.703125 C 311.335938 56.128906 310.121094 54.558594 310.121094 54.558594 C 315.046875 55.746094 318.898438 61.210938 322.359375 65.765625 C 324.042969 68.101562 325.753906 70.132812 327.089844 71.765625 C 328.457031 73.375 329.796875 74.3125 331.183594 74.070312 C 333.894531 78.445312 335.804688 82.921875 337.398438 87.785156 C 338.953125 92.691406 340.796875 97.578125 344.234375 102.609375 C 344.234375 102.609375 344.566406 100.957031 344.832031 99.308594 C 345.097656 97.644531 345.363281 95.976562 345.363281 95.976562 C 345.363281 95.976562 345.726562 96.582031 346.28125 97.488281 C 346.808594 98.410156 347.636719 99.570312 348.246094 100.851562 C 349.496094 103.394531 350.746094 105.9375 350.746094 105.9375 L 348.132812 107.414062 C 349.554688 110.734375 350.863281 112.148438 351.730469 112.246094 C 351.769531 114.339844 352.257812 116.414062 352.816406 118.597656 C 353.277344 120.820312 353.945312 123.101562 354.65625 125.453125 C 355.992188 130.175781 357.953125 135.089844 357.78125 140.523438 L 359.5 141.273438 C 359.320312 142.144531 359.191406 143.3125 359.007812 143.640625 C 362.019531 144.980469 363.242188 153.316406 365.589844 153.289062 C 365.433594 149.867188 364.707031 141.851562 363.335938 142.855469 C 363.679688 138.296875 364.742188 140.742188 365.902344 145.078125 C 366.480469 147.238281 367.074219 149.859375 367.613281 152.28125 C 367.941406 154.742188 368.246094 157.003906 368.429688 158.414062 C 366.082031 152.589844 366.949219 160.496094 366.882812 163.929688 C 367.367188 164.414062 367.386719 163.269531 367.894531 162.625 C 371.367188 173.03125 363.503906 177.253906 369.183594 183.996094 L 366.488281 185.90625 C 366.472656 185.914062 367.074219 187.96875 367.6875 190.019531 Z M 18.429688 245.089844 C 17.976562 243.734375 17.539062 242.375 17.121094 241 C 17.476562 242.921875 17.921875 244.886719 18.316406 246.675781 C 18.199219 245.976562 18.269531 245.484375 18.429688 245.089844 Z M 19.421875 133.566406 C 19.179688 133.617188 18.894531 133.757812 18.546875 134.09375 L 16.941406 136.792969 C 16.847656 138.367188 17.195312 138.796875 17.742188 138.550781 C 18.277344 136.875 18.835938 135.214844 19.421875 133.566406 Z M 27.820312 267.640625 C 25.136719 262.316406 22.730469 256.828125 20.609375 251.199219 C 20.660156 251.386719 20.707031 251.558594 20.757812 251.742188 C 21.578125 254.535156 22.292969 257.648438 23.449219 260.691406 C 23.449219 260.691406 23.179688 260.175781 22.78125 259.402344 C 22.375 258.628906 21.835938 257.597656 21.453125 256.5 C 20.589844 254.335938 19.734375 252.179688 19.734375 252.179688 C 18.960938 254.484375 20.085938 258.265625 22.164062 261.578125 C 24.089844 264.964844 26.21875 268.183594 26.484375 270.09375 C 27.472656 269.53125 27.6875 268.5 27.820312 267.640625 Z M 58.035156 56.800781 C 60.835938 55.039062 61.617188 55.125 64.152344 50.640625 C 61.335938 52.40625 58.257812 55.507812 58.035156 56.800781 Z M 48.390625 305.53125 C 48.1875 304.273438 47.597656 302.769531 46.785156 301.109375 C 46.09375 299.363281 45.167969 297.464844 44.117188 295.539062 C 43.066406 293.613281 41.894531 291.671875 40.691406 289.824219 C 39.472656 287.992188 38.234375 286.246094 37.296875 284.570312 C 37.417969 284.609375 37.527344 284.632812 37.640625 284.648438 C 36.855469 283.449219 36.082031 282.242188 35.324219 281.023438 C 35.335938 281.613281 35.367188 282.246094 35.457031 282.984375 C 35.746094 284.769531 36.074219 287.332031 37.8125 290.582031 L 35.449219 289.105469 C 37.941406 293.066406 37.707031 298.054688 43.539062 302.105469 C 45.027344 300.777344 41.878906 296.621094 41.105469 293.949219 C 42.027344 294.179688 42.574219 296.386719 43.507812 298.9375 C 43.984375 300.207031 44.519531 301.589844 45.292969 302.777344 C 46.128906 303.917969 47.144531 304.910156 48.390625 305.53125 Z M 52.144531 59.25 C 53.675781 58.984375 55.261719 58.269531 57.574219 54.785156 C 55.136719 56.625 53.433594 56.703125 51.890625 57.042969 C 50.378906 57.414062 48.855469 57.898438 47.351562 61.015625 C 49.140625 59.273438 50.605469 59.496094 52.144531 59.25 Z M 63.71875 319.578125 L 59.222656 315.257812 L 59.839844 319.300781 Z M 85.296875 334.628906 C 83.8125 332.75 83.074219 331.6875 82.824219 331.160156 C 81.078125 329.941406 79.355469 328.691406 77.660156 327.40625 C 77.875 328.0625 78.0625 328.707031 78.296875 329.351562 C 74.355469 327.582031 72.6875 324.753906 70.992188 322.097656 C 64.875 316.972656 59.117188 311.433594 53.769531 305.511719 C 55.394531 307.679688 57.058594 309.839844 58.699219 312.027344 C 62.667969 316.414062 66.832031 320.6875 71.144531 324.675781 C 75.785156 328.261719 80.40625 331.8125 85.296875 334.628906 Z M 121.191406 352.238281 L 116.003906 351.429688 L 119.332031 352.839844 Z M 144.023438 23.527344 C 146.566406 22.972656 149.128906 22.472656 151.710938 22.03125 C 149.570312 21.742188 148.273438 20.964844 149.386719 20.433594 C 146.914062 22.105469 144.21875 22.449219 144.023438 23.527344 Z M 158.515625 361.21875 C 157.929688 360.910156 157.324219 360.59375 156.714844 360.273438 C 151.226562 359.5 145.828125 358.472656 140.519531 357.191406 C 141.890625 357.953125 143.265625 358.71875 144.636719 359.433594 C 149.699219 361.773438 154.765625 362.921875 158.515625 361.21875 Z M 189.40625 365.179688 C 188.957031 364.707031 188.046875 364.441406 187.015625 364.28125 C 186.441406 363.757812 186.25 363.113281 186.550781 362.578125 C 187.328125 362.3125 187.992188 362.050781 188.382812 361.785156 C 188.152344 361.800781 187.917969 361.808594 187.6875 361.8125 C 187.097656 361.992188 186.753906 362.265625 186.550781 362.578125 C 185.242188 363.019531 183.425781 363.449219 181.324219 363.84375 C 179.222656 364.136719 176.835938 364.171875 174.382812 364.25 C 169.5 364.261719 164.34375 364.402344 160.886719 363.570312 C 159.28125 364.042969 160.613281 365.144531 162.710938 366.300781 C 164.820312 367.25 167.699219 368.179688 169.007812 368.734375 C 167.285156 364.566406 169.765625 364.777344 173.476562 365.71875 C 175.339844 366.1875 177.53125 366.839844 179.660156 367.214844 C 181.78125 367.597656 183.839844 367.339844 185.378906 366.605469 C 183.738281 365.921875 179.554688 366.339844 178.484375 364.972656 C 180.328125 364.480469 184.308594 363.851562 187.015625 364.28125 C 187.578125 364.832031 188.484375 365.234375 189.40625 365.179688 Z M 212.511719 359.007812 C 209.039062 359.660156 205.523438 360.214844 201.980469 360.65625 C 202.65625 360.808594 203.320312 360.984375 203.972656 361.195312 C 205.675781 360.921875 210.6875 360.125 212.511719 359.007812 Z M 228.644531 19.519531 L 224.554688 18.695312 C 229.914062 19.011719 218.886719 13.984375 226.96875 14.988281 C 230.234375 15.390625 222.085938 11.691406 218.1875 11.5625 C 218.460938 13.269531 225.90625 14.511719 222.949219 15.832031 L 219.742188 15.433594 C 224.558594 16.015625 221.546875 19.988281 228.644531 19.519531 Z M 242.800781 18.765625 C 242.421875 18.417969 242.085938 18.203125 241.730469 17.949219 C 239.398438 15.859375 237.203125 11.480469 231.300781 13.1875 C 234.394531 17.480469 237.335938 14.789062 241.730469 17.949219 C 242.066406 18.265625 242.433594 18.550781 242.800781 18.765625 Z M 274.085938 46.8125 L 274.09375 47.257812 C 274.644531 47.617188 275.191406 47.976562 275.738281 48.339844 C 275.210938 47.804688 274.664062 47.285156 274.085938 46.8125 Z M 266.347656 352.421875 L 262.574219 352.960938 C 262.8125 351.683594 265.863281 348.902344 259.449219 353.363281 L 262.574219 352.960938 C 262.484375 353.597656 263.082031 353.878906 266.347656 352.421875 Z M 270.984375 344.457031 C 268.382812 346.195312 265.183594 348.367188 263.25 349.28125 C 263.96875 349.199219 265.109375 348.902344 266.378906 348.410156 C 267.605469 347.839844 268.984375 347.089844 270.265625 346.304688 C 272.839844 344.726562 275.046875 342.957031 274.996094 341.929688 C 275.601562 341.4375 273.59375 342.734375 270.984375 344.457031 Z M 278.492188 334.292969 C 278.390625 333.125 276.894531 333.226562 274.992188 333.675781 C 274.886719 333.742188 274.785156 333.808594 274.679688 333.878906 C 275.4375 334.210938 273.992188 336.164062 278.492188 334.292969 Z M 296.9375 320 C 296.828125 319.898438 296.710938 319.804688 296.621094 319.675781 C 296.65625 319.84375 296.777344 319.9375 296.9375 320 Z M 298.964844 60.089844 L 295.019531 54.945312 L 296.300781 55.816406 L 296.238281 53.355469 C 295.324219 55.820312 293.816406 54.351562 291.84375 52.347656 C 289.925781 50.277344 287.792969 47.269531 286.328125 46.0625 C 289.363281 49.363281 291.402344 56.171875 298.964844 60.089844 Z M 318.589844 304.707031 C 319.640625 303.757812 320.671875 302.34375 321.667969 300.429688 C 315.359375 303.769531 313.523438 302.9375 306.851562 308.097656 L 307.429688 311.339844 C 309.222656 308.753906 306.835938 308.117188 311.875 304.894531 C 312.226562 305.847656 313.59375 306.640625 315.46875 306.261719 C 316.40625 306.070312 317.46875 305.59375 318.589844 304.707031 Z M 327.25 295.214844 C 320.664062 297.617188 323.273438 300.546875 321.824219 304.824219 C 321.824219 304.824219 321.382812 305.605469 320.9375 306.394531 C 320.425781 307.125 319.917969 307.863281 319.917969 307.863281 C 320.984375 306.851562 321.535156 305.792969 321.824219 304.824219 Z M 332.21875 111.042969 C 332.054688 110.550781 331.90625 110.0625 331.808594 109.601562 C 331.503906 108.210938 331.378906 107.085938 332.007812 106.25 C 330.707031 105.976562 330.140625 106.289062 330.03125 107.019531 C 330.78125 108.351562 331.507812 109.691406 332.21875 111.042969 Z M 336.761719 88.894531 C 334.683594 86.300781 335.574219 91.136719 335.164062 92.746094 C 334.140625 91.472656 333.738281 90.441406 332.898438 88.324219 C 330.074219 91.707031 337.210938 92.632812 338.824219 99.457031 C 340.5 98.375 336.816406 91.628906 336.761719 88.894531 Z M 343.625 133.789062 C 343.824219 132.042969 342 129.996094 342.199219 128.25 C 344.085938 127.882812 343.4375 127.136719 342.355469 124.0625 C 342.257812 123.246094 342.042969 122.34375 341.328125 121.21875 C 341.773438 122.34375 342.097656 123.25 342.355469 124.0625 C 342.886719 127.808594 339.914062 128.492188 343.625 133.789062 Z M 349.378906 111.46875 L 350.574219 114.261719 C 350.394531 113.148438 349.933594 112.269531 349.378906 111.46875 L 347.496094 107.0625 C 346.050781 108.367188 347.953125 109.414062 349.378906 111.46875 Z M 351.050781 155.808594 C 349.734375 155.300781 349 155.511719 348.21875 155.394531 C 348.660156 157.53125 349.070312 159.683594 349.4375 161.847656 C 349.632812 159.765625 350.121094 157.75 351.050781 155.808594 Z M 358.648438 235.351562 C 358.886719 235.828125 359.296875 236.140625 359.949219 236.210938 L 359.1875 234.335938 C 358.992188 234.652344 358.832031 235.011719 358.648438 235.351562 Z M 351.167969 261.152344 C 350.386719 262.75 349.476562 264.042969 348.621094 265.46875 C 349.511719 264.65625 350.761719 263.261719 351.167969 261.152344 Z M 80.765625 343.058594 C 80.039062 342.617188 79.542969 342.242188 79.210938 341.917969 C 79.429688 342.183594 79.871094 342.523438 80.765625 343.058594 Z M 80.765625 343.058594 "/>
</g>
<g clip-path="url(#clip2)" clip-rule="nonzero">
<path style=" stroke:none;fill-rule:nonzero;fill:rgb(87.838745%,47.839355%,37.249756%);fill-opacity:1;" d="M 285.828125 84.121094 C 282.554688 94.9375 274.523438 103.753906 265.519531 110.613281 C 260.722656 114.265625 255.617188 117.460938 250.457031 120.597656 C 244.953125 121.328125 239.382812 121.515625 233.847656 121.15625 C 238.617188 123.570312 243.921875 124.910156 249.269531 125.046875 C 240.75 128.066406 231.894531 130.144531 222.925781 131.238281 C 226.933594 132.578125 231.042969 133.574219 235.222656 134.210938 C 223.957031 138.421875 213.46875 144.660156 204.382812 152.523438 C 213.898438 149.925781 223.175781 146.421875 232.03125 142.0625 C 225.582031 151.84375 217.398438 160.472656 207.992188 167.457031 C 210.089844 166.195312 212.152344 164.898438 214.199219 163.554688 C 217.296875 161.519531 220.339844 159.371094 223.289062 157.121094 C 216.503906 170.300781 205.9375 180.792969 193.863281 189.292969 C 198.464844 187.546875 202.960938 185.554688 207.339844 183.320312 C 206.910156 183.765625 206.46875 184.214844 206.03125 184.652344 C 198.191406 192.582031 189.1875 199.234375 179.273438 204.355469 C 177.167969 205.449219 175.035156 206.53125 172.878906 207.570312 C 181.511719 205.285156 190.003906 202.476562 198.300781 199.15625 C 191.601562 206.574219 182.222656 211.324219 172.679688 214.546875 C 161.675781 218.269531 150.324219 219.988281 140.042969 225.625 C 131.144531 230.496094 123.148438 237.035156 116.648438 244.804688 C 120.34375 236.976562 121.875 228.519531 122.460938 219.808594 C 122.796875 214.882812 122.898438 210.113281 124.53125 205.386719 C 127.25 197.53125 132.8125 190.710938 138.597656 184.882812 C 136.15625 191.5625 135.167969 198.773438 135.75 205.851562 C 136.988281 193.375 141.890625 182.617188 148.441406 172.457031 C 145.992188 178.242188 144.703125 184.453125 144.667969 190.726562 C 147.246094 177.277344 152.578125 164.355469 160.230469 152.984375 C 159.25 157.359375 159.179688 161.933594 160.101562 166.304688 C 161.90625 155.28125 167.003906 144.789062 174.597656 136.582031 C 174.398438 137.132812 174.234375 137.707031 174.148438 138.324219 C 173.625 141.933594 173.332031 145.578125 173.273438 149.222656 C 174.785156 143.75 177.097656 138.488281 180.101562 133.667969 C 182.007812 131.398438 184.003906 129.183594 186.007812 126.992188 C 190.941406 121.59375 196.453125 116.601562 202.429688 112.261719 C 200.039062 119.144531 198.492188 126.320312 197.828125 133.582031 C 200.390625 124.148438 204.59375 115.167969 210.183594 107.140625 C 212.335938 105.871094 214.535156 104.675781 216.777344 103.582031 C 218.945312 102.515625 221.144531 101.539062 223.382812 100.625 C 221.652344 106.289062 220.347656 112.082031 219.488281 117.933594 C 224.191406 108.109375 230.992188 99.296875 239.296875 92.257812 C 234.558594 97.980469 230.921875 104.613281 228.667969 111.695312 C 233.71875 104.726562 239.847656 98.546875 246.769531 93.425781 C 248.257812 93.074219 249.75 92.738281 251.257812 92.421875 C 261.644531 90.175781 275.195312 84.753906 285.828125 84.121094 "/>
</g>
<g clip-path="url(#clip3)" clip-rule="nonzero">
<path style=" stroke:none;fill-rule:nonzero;fill:rgb(23.919678%,25.099182%,35.688782%);fill-opacity:1;" d="M 136.199219 217.054688 C 140.355469 210.929688 144.640625 204.894531 149.070312 198.964844 C 153.484375 193.050781 158.039062 187.246094 162.75 181.566406 C 167.445312 175.90625 172.289062 170.371094 177.292969 164.980469 C 182.28125 159.605469 187.429688 154.375 192.734375 149.3125 C 198.035156 144.257812 203.5 139.375 209.125 134.679688 C 214.757812 129.980469 220.546875 125.480469 226.5 121.191406 C 232.757812 116.691406 239.214844 112.492188 245.707031 108.339844 C 250.289062 105.414062 254.976562 102.667969 259.714844 100.007812 C 259.46875 100.132812 259.222656 100.253906 258.976562 100.375 C 252.367188 103.671875 245.898438 107.257812 239.59375 111.101562 C 233.304688 114.941406 227.175781 119.035156 221.207031 123.355469 C 215.238281 127.683594 209.433594 132.238281 203.796875 136.988281 C 198.140625 141.753906 192.652344 146.714844 187.328125 151.847656 C 181.984375 156.996094 176.804688 162.316406 171.78125 167.78125 C 166.742188 173.265625 161.863281 178.890625 157.136719 184.640625 C 152.394531 190.402344 147.804688 196.285156 143.359375 202.277344 C 138.910156 208.261719 134.605469 214.355469 130.429688 220.535156 C 116.332031 241.402344 102.085938 265.753906 89.535156 291.121094 C 89.535156 291.121094 99.449219 284.324219 105.082031 280.464844 C 109.917969 256.648438 122.757812 236.882812 136.199219 217.054688 "/>
</g>
</g>
</svg>
